<svg xmlns="http://www.w3.org/2000/svg" viewBox="0 0 165.4 53.55"><defs><style>.cls-1,.cls-2{fill:#ff4029;}.cls-2{stroke:#ff4029;}.cls-2,.cls-3,.cls-4,.cls-5,.cls-6,.cls-7{stroke-miterlimit:10;}.cls-3{fill:#ffbd00;stroke:#ffbd00;}.cls-4{fill:#2f92e1;stroke:#2f92e1;}.cls-5,.cls-8{fill:#009a51;}.cls-5{stroke:#009a51;}.cls-10,.cls-6{fill:#f682de;}.cls-6{stroke:#f682de;}.cls-7,.cls-9{fill:#6d76bb;}.cls-7{stroke:#6d76bb;}.cls-8,.cls-9{opacity:0.65;}.cls-10{opacity:0.9;}</style></defs><g id="Calque_2" data-name="Calque 2"><g id="Draft"><path class="cls-1" d="M94.1,2.78c.21,2.63.42,5.25.64,7.88L105,8.22l-.27,1.91,6.63-.7-6.65-3,.61-2.34Z"/><path class="cls-2" d="M28.3,14.82l-3.17.58c-1.87.34-4.69.86-8.46,1.58.57,3.47,1,6.1,1.3,7.89s.72,4.24,1.26,7.33,1.06,6,1.62,9,.94,5.1,1.13,6.11l-3.91.74c-.14-1-.48-3.09-1-6.22s-1-6.19-1.57-9.18l-1.22-7q-.46-2.6-1.47-8c-3.37.62-6.1,1.15-8.18,1.57L1.19,20,.58,16.48Q3,16,6.51,15.38L14,14c3.83-.73,7-1.34,9.58-1.85l4.15-.81Z"/><path class="cls-3" d="M55,27.61a16.59,16.59,0,0,1-.65,5.76,13.1,13.1,0,0,1-2.59,4.85,11.26,11.26,0,0,1-3.37,2.71,10.9,10.9,0,0,1-4.33,1.15,11.2,11.2,0,0,1-4.38-.53A10.66,10.66,0,0,1,36,39.35a12.68,12.68,0,0,1-3.11-4.42,16.69,16.69,0,0,1-1.35-5.74A16.58,16.58,0,0,1,32,23.71a12.68,12.68,0,0,1,2.39-4.64,11.15,11.15,0,0,1,3.58-3,10.94,10.94,0,0,1,4.46-1.28,11.06,11.06,0,0,1,4.58.57,10.36,10.36,0,0,1,3.78,2.41,13.11,13.11,0,0,1,3,4.36A16.48,16.48,0,0,1,55,27.61Zm-3.83.44a15.37,15.37,0,0,0-1-4.64,9.53,9.53,0,0,0-2.51-3.69,6.4,6.4,0,0,0-2.31-1.35A7.15,7.15,0,0,0,42.65,18a6.89,6.89,0,0,0-2.85.77,7.12,7.12,0,0,0-2.19,1.93,9.81,9.81,0,0,0-1.79,3.68,13.71,13.71,0,0,0-.47,4.52,15,15,0,0,0,1,4.75A9.36,9.36,0,0,0,39,37.31a6.52,6.52,0,0,0,2.24,1.22,7.41,7.41,0,0,0,5.42-.47,6.78,6.78,0,0,0,2.19-1.8,10.13,10.13,0,0,0,1.87-3.74A13.59,13.59,0,0,0,51.21,28.05Z"/><path class="cls-4" d="M82.21,15.4c-2.79,7.16-4.74,14.08-9.41,23.72A77.49,77.49,0,0,1,63.89,53a.2.2,0,0,1-.32,0L61,50.26l7.48-9.87a.79.79,0,0,0,.11-.82c-.4-1-1.24-3.2-2.83-6.91q-3-6.94-7.23-16.56l3.56-1.75q2.79,7.08,5.68,14t3,7.28h0q.14-.27,2.6-6.91t5.39-14.66Z"/><path class="cls-5" d="M109.59,26.49A13.18,13.18,0,0,1,108,33.81a11.75,11.75,0,0,1-5,4.74,18.82,18.82,0,0,1-4.82,1.64,41.13,41.13,0,0,1-6.57.73l-1.08,0L89.42,41c0-1.32-.14-3.77-.28-7.35s-.32-7.88-.55-12.92c-.14-3.08-.29-6.06-.44-9s-.3-5.84-.48-8.85l3.81-.16L92,14.62a29.69,29.69,0,0,1,7.94.6A15,15,0,0,1,105,17.41a10.32,10.32,0,0,1,3.31,3.78A12.83,12.83,0,0,1,109.59,26.49Zm-3.85.27a8.22,8.22,0,0,0-1.89-5.14,9.42,9.42,0,0,0-4.38-2.87,18.51,18.51,0,0,0-3-.63A19.26,19.26,0,0,0,93.28,18l-.63,0-.55,0c0,.38.08,1.74.18,4.09s.18,4.29.25,5.81q.21,4.29.31,6.06c.07,1.18.13,2.38.19,3.59A25.48,25.48,0,0,0,97.84,37a12.36,12.36,0,0,0,3.72-1.48,8.5,8.5,0,0,0,3.28-3.6A10.69,10.69,0,0,0,105.74,26.76Z"/><path class="cls-6" d="M137.23,29.25a16.25,16.25,0,0,1-1.35,5.63,12.87,12.87,0,0,1-3.15,4.45,11.12,11.12,0,0,1-3.68,2.21,10.75,10.75,0,0,1-4.43.55A11.36,11.36,0,0,1,120.34,41a10.94,10.94,0,0,1-3.45-2.7,12.92,12.92,0,0,1-2.54-4.82,16.89,16.89,0,0,1-.65-5.87,16.5,16.5,0,0,1,1.19-5.37,12.54,12.54,0,0,1,2.93-4.27,11,11,0,0,1,3.91-2.49,10.79,10.79,0,0,1,4.58-.65,11.46,11.46,0,0,1,4.48,1.2,10.71,10.71,0,0,1,3.45,2.91,13.51,13.51,0,0,1,2.44,4.75A16.75,16.75,0,0,1,137.23,29.25Zm-3.86-.09a15.4,15.4,0,0,0-.44-4.74,9.72,9.72,0,0,0-2-4,6.53,6.53,0,0,0-2.13-1.66,7,7,0,0,0-2.65-.71,6.79,6.79,0,0,0-2.92.36A7.12,7.12,0,0,0,120.78,20a9.76,9.76,0,0,0-2.23,3.41,13.75,13.75,0,0,0-1,4.41,14.74,14.74,0,0,0,.45,4.86,9.5,9.5,0,0,0,2.17,4,6.53,6.53,0,0,0,2.08,1.52,7.33,7.33,0,0,0,5.43.29A6.7,6.7,0,0,0,130.07,37a10.06,10.06,0,0,0,2.31-3.45A13.33,13.33,0,0,0,133.37,29.16Z"/><path class="cls-7" d="M161.41,46.54l-3.3,1.9c-.05-.15-.63-1.42-1.73-3.81s-2.51-5.32-4.26-8.78h-.05q-3.87,3.66-6.71,6.61c-1.9,2-2.92,3-3.08,3.17L140,42.87q.36-.28,3.44-3.07t7.06-6.56v-.06L147.39,27q-1.5-3-3.26-6.34l3.23-1.8q1.29,2.73,2.73,5.75l3,6.19h0q2.13-2.1,4.37-4.33c1.5-1.48,3.11-3.12,4.83-4.9l2.35,2.64c-1.91,1.73-3.62,3.28-5.12,4.67s-3.14,2.89-4.91,4.52v.05q2.75,5.34,4.67,9.07Z"/><path class="cls-8" d="M132.15,8.29c-.29-1.28-3.07-6.64.16-7.53a3.51,3.51,0,0,1,2.57.33c1.31.89.8,2.85.74,2.94"/><path class="cls-9" d="M134.48,11.25c.66-1.75,2.14-7.44,7.69-8.45a8,8,0,0,1,1.42-.12L147.21,5c-.4,1.31-2.14,2.71-2.54,4-1.65.08-3.59.28-4.12.36A21.09,21.09,0,0,0,134.48,11.25Z"/><path class="cls-10" d="M126.41,6.24c-.23-1.18.11-6.67-2.92-6.21a3.16,3.16,0,0,0-2,1.22c-.75,1.22,1.06,2.3,1.15,2.35"/></g></g></svg>