<svg xmlns="http://www.w3.org/2000/svg" viewBox="0 0 165.4 57.21"><defs><style>.cls-1,.cls-2{fill:#ff4029;}.cls-2{stroke:#ff4029;}.cls-2,.cls-3,.cls-4,.cls-5,.cls-6,.cls-7{stroke-miterlimit:10;}.cls-3{fill:#ffbd00;stroke:#ffbd00;}.cls-4{fill:#2f92e1;stroke:#2f92e1;}.cls-5,.cls-8{fill:#009a51;}.cls-5{stroke:#009a51;}.cls-10,.cls-6{fill:#f682de;}.cls-6{stroke:#f682de;}.cls-7,.cls-9{fill:#6d76bb;}.cls-7{stroke:#6d76bb;}.cls-8,.cls-9{opacity:0.65;}.cls-10{opacity:0.9;}</style></defs><g id="Calque_2" data-name="Calque 2"><g id="Draft"><path class="cls-1" d="M94.1,6.44c.21,2.63.42,5.25.64,7.88L105,11.88l-.27,1.91,6.63-.7-6.65-3,.61-2.34Z"/><path class="cls-2" d="M28.3,18.48l-3.17.58c-1.87.34-4.69.86-8.46,1.58.57,3.47,1,6.1,1.3,7.89s.72,4.24,1.26,7.33,1.06,6,1.62,9S21.79,50,22,51l-3.91.74c-.14-1-.48-3.09-1-6.22s-1-6.19-1.57-9.18l-1.22-7q-.46-2.59-1.47-8c-3.37.62-6.1,1.15-8.18,1.57l-3.44.69-.61-3.5L6.51,19,14,17.65c3.83-.73,7-1.34,9.58-1.85L27.69,15Z"/><path class="cls-3" d="M55,31.27A16.62,16.62,0,0,1,54.39,37a13.1,13.1,0,0,1-2.59,4.85,11.41,11.41,0,0,1-3.37,2.71,10.9,10.9,0,0,1-4.33,1.15,11.2,11.2,0,0,1-4.38-.53A10.66,10.66,0,0,1,36,43a12.63,12.63,0,0,1-3.11-4.43,16.58,16.58,0,0,1-1.35-5.73A16.64,16.64,0,0,1,32,27.36a12.71,12.71,0,0,1,2.39-4.63A11.41,11.41,0,0,1,47,19a10.46,10.46,0,0,1,3.78,2.4,13.25,13.25,0,0,1,3,4.37A16.48,16.48,0,0,1,55,31.27Zm-3.83.44a15.37,15.37,0,0,0-1-4.64,9.64,9.64,0,0,0-2.51-3.7A6.52,6.52,0,0,0,45.37,22a7,7,0,0,0-2.72-.34,7,7,0,0,0-2.85.76,7.3,7.3,0,0,0-2.19,1.94,9.81,9.81,0,0,0-1.79,3.68,13.71,13.71,0,0,0-.47,4.52,15,15,0,0,0,1,4.75A9.26,9.26,0,0,0,39,41a6.38,6.38,0,0,0,2.24,1.23,7.41,7.41,0,0,0,5.42-.47,6.78,6.78,0,0,0,2.19-1.8,10.13,10.13,0,0,0,1.87-3.74A13.62,13.62,0,0,0,51.21,31.71Z"/><path class="cls-4" d="M82.21,19.06c-2.79,7.16-4.74,14.08-9.41,23.72a77.49,77.49,0,0,1-8.91,13.85.2.2,0,0,1-.32,0L61,53.92l7.48-9.87a.79.79,0,0,0,.11-.82c-.4-.95-1.24-3.2-2.83-6.91q-3-6.94-7.23-16.56L62.11,18q2.79,7.08,5.68,14l3,7.27h0q.14-.26,2.6-6.9t5.39-14.66Z"/><path class="cls-5" d="M109.59,30.15A13.18,13.18,0,0,1,108,37.47a11.75,11.75,0,0,1-5,4.74,18.82,18.82,0,0,1-4.82,1.64,41.13,41.13,0,0,1-6.57.73l-1.08.05-1.06,0c0-1.32-.14-3.77-.28-7.35s-.32-7.88-.55-12.92c-.14-3.08-.29-6.06-.44-9s-.3-5.84-.48-8.85l3.81-.16L92,18.28a29.69,29.69,0,0,1,7.94.6A15,15,0,0,1,105,21.07a10.32,10.32,0,0,1,3.31,3.78A12.83,12.83,0,0,1,109.59,30.15Zm-3.85.27a8.22,8.22,0,0,0-1.89-5.14,9.42,9.42,0,0,0-4.38-2.87,16.54,16.54,0,0,0-3-.63,18.26,18.26,0,0,0-3.24-.13l-.63,0-.55,0c0,.38.08,1.74.18,4.09s.18,4.29.25,5.81q.21,4.29.31,6.06c.07,1.18.13,2.37.19,3.59a25.48,25.48,0,0,0,4.81-.63,12.36,12.36,0,0,0,3.72-1.48,8.47,8.47,0,0,0,3.28-3.61A10.65,10.65,0,0,0,105.74,30.42Z"/><path class="cls-6" d="M137.23,32.91a16.25,16.25,0,0,1-1.35,5.63A12.87,12.87,0,0,1,132.73,43a11.12,11.12,0,0,1-3.68,2.21,10.75,10.75,0,0,1-4.43.55,11.36,11.36,0,0,1-4.28-1.14,10.94,10.94,0,0,1-3.45-2.7,12.92,12.92,0,0,1-2.54-4.82,16.89,16.89,0,0,1-.65-5.87,16.5,16.5,0,0,1,1.19-5.37,12.54,12.54,0,0,1,2.93-4.27,11,11,0,0,1,3.91-2.49,10.79,10.79,0,0,1,4.58-.65,11.46,11.46,0,0,1,4.48,1.2,10.47,10.47,0,0,1,3.45,2.91,13.55,13.55,0,0,1,2.44,4.74A16.83,16.83,0,0,1,137.23,32.91Zm-3.86-.09a15.4,15.4,0,0,0-.44-4.74,9.72,9.72,0,0,0-2-4,6.53,6.53,0,0,0-2.13-1.66,7,7,0,0,0-2.65-.71,6.79,6.79,0,0,0-2.92.36,7.12,7.12,0,0,0-2.41,1.61,9.81,9.81,0,0,0-2.23,3.4,13.87,13.87,0,0,0-1,4.42,14.8,14.8,0,0,0,.45,4.86,9.41,9.41,0,0,0,2.17,3.95,6.42,6.42,0,0,0,2.08,1.53,7.33,7.33,0,0,0,5.43.29,6.7,6.7,0,0,0,2.39-1.48,10.06,10.06,0,0,0,2.31-3.45A13.33,13.33,0,0,0,133.37,32.82Z"/><path class="cls-7" d="M161.41,50.2l-3.3,1.9c-.05-.15-.63-1.42-1.73-3.81s-2.51-5.32-4.26-8.78h-.05q-3.87,3.66-6.71,6.61c-1.9,2-2.92,3-3.08,3.17L140,46.53q.36-.28,3.44-3.07t7.06-6.57v0l-3.11-6.18q-1.5-3-3.26-6.34l3.23-1.8q1.29,2.73,2.73,5.75t3,6.18h0q2.13-2.1,4.37-4.33c1.5-1.48,3.11-3.12,4.83-4.9l2.35,2.64c-1.91,1.73-3.62,3.28-5.12,4.67s-3.14,2.89-4.91,4.52v0q2.75,5.34,4.67,9.07Z"/><path class="cls-8" d="M134.3,8.29C134,7,131.23,1.65,134.46.76a3.51,3.51,0,0,1,2.57.33c1.31.89.8,2.85.74,2.94"/><path class="cls-9" d="M136.63,11.25c.66-1.75,2.14-7.44,7.69-8.45a8,8,0,0,1,1.42-.12L149.36,5c-.4,1.31-2.14,2.71-2.54,4-1.65.08-3.59.28-4.12.36A21.09,21.09,0,0,0,136.63,11.25Z"/><path class="cls-10" d="M128.56,6.24c-.23-1.18.11-6.67-2.92-6.21a3.16,3.16,0,0,0-2,1.22c-.75,1.22,1.06,2.3,1.15,2.35"/></g></g></svg>